REM DIRINDEX 1\4,1\2\5,1\2\6,1\2\7,1\3\8,1\3\9,1\3\10,1\3\11
REM DIRNAME cjc108,folder01,folder02,folder03,folder04,folder05,folder06,folder07,folder08,folder09,folder10
TITLE ""
FILE "t_j_20.mp3" MP3
  TRACK 01 AUDIO
    TITLE "8:cjc108_2134"
    INDEX 01 00:00:00
  TRACK 02 AUDIO
    TITLE "0:"
    INDEX 01 00:02:55
  TRACK 03 AUDIO
    TITLE "9:cjc108_2135"
    INDEX 01 00:03:64
  TRACK 04 AUDIO
    TITLE "0:"
    INDEX 01 00:05:14
  TRACK 05 AUDIO
    TITLE "10:cjc108_2136"
    INDEX 01 00:05:28
  TRACK 06 AUDIO
    TITLE "0:"
    INDEX 01 00:07:45
  TRACK 07 AUDIO
    TITLE "9:cjc108_2137"
    INDEX 01 00:08:23
  TRACK 08 AUDIO
    TITLE "0:"
    INDEX 01 00:09:42
  TRACK 09 AUDIO
    TITLE "10:cjc108_2138"
    INDEX 01 00:09:57
  TRACK 10 AUDIO
    TITLE "0:"
    INDEX 01 00:11:07
  TRACK 11 AUDIO
    TITLE "11:cjc108_2139"
    INDEX 01 00:11:54
  TRACK 12 AUDIO
    TITLE "0:"
    INDEX 01 00:23:14
  TRACK 13 AUDIO
    TITLE "9:cjc108_2140"
    INDEX 01 00:24:69
  TRACK 14 AUDIO
    TITLE "0:"
    INDEX 01 00:25:74
  TRACK 15 AUDIO
    TITLE "10:cjc108_2141"
    INDEX 01 00:26:01
  TRACK 16 AUDIO
    TITLE "0:"
    INDEX 01 00:27:65
  TRACK 17 AUDIO
    TITLE "9:cjc108_2142"
    INDEX 01 00:28:35
  TRACK 18 AUDIO
    TITLE "0:"
    INDEX 01 00:29:60
  TRACK 19 AUDIO
    TITLE "10:cjc108_2143"
    INDEX 01 00:29:66
  TRACK 20 AUDIO
    TITLE "0:"
    INDEX 01 00:30:61
  TRACK 21 AUDIO
    TITLE "11:cjc108_2144"
    INDEX 01 00:31:35
  TRACK 22 AUDIO
    TITLE "0:"
    INDEX 01 00:38:35
  TRACK 23 AUDIO
    TITLE "9:cjc108_2145"
    INDEX 01 00:40:13
  TRACK 24 AUDIO
    TITLE "0:"
    INDEX 01 00:41:04
  TRACK 25 AUDIO
    TITLE "10:cjc108_2146"
    INDEX 01 00:41:16
  TRACK 26 AUDIO
    TITLE "0:"
    INDEX 01 00:42:31
  TRACK 27 AUDIO
    TITLE "9:cjc108_2147"
    INDEX 01 00:43:09
  TRACK 28 AUDIO
    TITLE "0:"
    INDEX 01 00:44:18
  TRACK 29 AUDIO
    TITLE "10:cjc108_2148"
    INDEX 01 00:44:30
  TRACK 30 AUDIO
    TITLE "0:"
    INDEX 01 00:46:74
  TRACK 31 AUDIO
    TITLE "9:cjc108_2149"
    INDEX 01 00:47:52
  TRACK 32 AUDIO
    TITLE "0:"
    INDEX 01 00:48:71
  TRACK 33 AUDIO
    TITLE "10:cjc108_2150"
    INDEX 01 00:48:73
  TRACK 34 AUDIO
    TITLE "0:"
    INDEX 01 00:51:34
  TRACK 35 AUDIO
    TITLE "11:cjc108_2151"
    INDEX 01 00:52:10
  TRACK 36 AUDIO
    TITLE "0:"
    INDEX 01 00:58:20
  TRACK 37 AUDIO
    TITLE "9:cjc108_2152"
    INDEX 01 00:59:71
  TRACK 38 AUDIO
    TITLE "0:"
    INDEX 01 01:00:62
  TRACK 39 AUDIO
    TITLE "10:cjc108_2153"
    INDEX 01 01:00:70
  TRACK 40 AUDIO
    TITLE "0:"
    INDEX 01 01:02:28
  TRACK 41 AUDIO
    TITLE "9:cjc108_2154"
    INDEX 01 01:03:04
  TRACK 42 AUDIO
    TITLE "0:"
    INDEX 01 01:04:15
  TRACK 43 AUDIO
    TITLE "10:cjc108_2155"
    INDEX 01 01:04:21
  TRACK 44 AUDIO
    TITLE "0:"
    INDEX 01 01:05:26
  TRACK 45 AUDIO
    TITLE "9:cjc108_2156"
    INDEX 01 01:06:02
  TRACK 46 AUDIO
    TITLE "0:"
    INDEX 01 01:07:55
  TRACK 47 AUDIO
    TITLE "10:cjc108_2157"
    INDEX 01 01:07:66
  TRACK 48 AUDIO
    TITLE "0:"
    INDEX 01 01:09:59
  TRACK 49 AUDIO
    TITLE "9:cjc108_2158"
    INDEX 01 01:10:33
  TRACK 50 AUDIO
    TITLE "0:"
    INDEX 01 01:11:56
  TRACK 51 AUDIO
    TITLE "10:cjc108_2159"
    INDEX 01 01:11:66
  TRACK 52 AUDIO
    TITLE "0:"
    INDEX 01 01:14:06
  TRACK 53 AUDIO
    TITLE "9:cjc108_2160"
    INDEX 01 01:14:53
  TRACK 54 AUDIO
    TITLE "0:"
    INDEX 01 01:15:68
  TRACK 55 AUDIO
    TITLE "10:cjc108_2161"
    INDEX 01 01:16:03
  TRACK 56 AUDIO
    TITLE "0:"
    INDEX 01 01:20:06
  TRACK 57 AUDIO
    TITLE "9:cjc108_2162"
    INDEX 01 01:20:51
  TRACK 58 AUDIO
    TITLE "0:"
    INDEX 01 01:21:57
  TRACK 59 AUDIO
    TITLE "10:cjc108_2163"
    INDEX 01 01:21:69
  TRACK 60 AUDIO
    TITLE "0:"
    INDEX 01 01:23:05
  TRACK 61 AUDIO
    TITLE "11:cjc108_2164"
    INDEX 01 01:23:52
  TRACK 62 AUDIO
    TITLE "0:"
    INDEX 01 01:33:70
